<svg class="railroad-diagram" width="455.5" height="132" viewBox="0 0 455.5 132" xmlns="http://www.w3.org/2000/svg" xmlns:xlink="http://www.w3.org/1999/xlink">
<g transform="translate(.5 .5)">
<g>
<path d="M20 21v20m0 -10h20"></path>
</g>
<path d="M40 31h10"></path>
<g class="comment ">
<path d="M50 31h0"></path>
<path d="M95 31h0"></path>
<text x="72.5" y="36" class="comment">field</text>
</g>
<path d="M95 31h10"></path>
<path d="M105 31h10"></path>
<g class="non-terminal ">
<path d="M115 31h0"></path>
<path d="M186 31h0"></path>
<rect x="115" y="20" width="71" height="22"></rect>
<text x="150.5" y="35">string</text>
</g>
<path d="M186 31h10"></path>
<g>
<path d="M196 31h0"></path>
<path d="M415.5 31h0"></path>
<path d="M196 31h20"></path>
<g>
<path d="M216 31h179.5"></path>
</g>
<path d="M395.5 31h20"></path>
<path d="M196 31a10 10 0 0 1 10 10v0a10 10 0 0 0 10 10"></path>
<g>
<path d="M216 51h0"></path>
<path d="M395.5 51h0"></path>
<g class="terminal ">
<path d="M216 51h0"></path>
<path d="M244.5 51h0"></path>
<rect x="216" y="40" width="28.5" height="22" rx="10" ry="10"></rect>
<text x="230.25" y="55">&#91;</text>
</g>
<path d="M244.5 51h10"></path>
<g>
<path d="M254.5 51h0"></path>
<path d="M357 51h0"></path>
<path d="M254.5 51h20"></path>
<g>
<path d="M274.5 51h62.5"></path>
</g>
<path d="M337 51h20"></path>
<path d="M254.5 51a10 10 0 0 1 10 10v0a10 10 0 0 0 10 10"></path>
<g class="terminal ">
<path d="M274.5 71h17"></path>
<path d="M320 71h17"></path>
<rect x="291.5" y="60" width="28.5" height="22" rx="10" ry="10"></rect>
<text x="305.75" y="75">&#42;</text>
</g>
<path d="M337 71a10 10 0 0 0 10 -10v0a10 10 0 0 1 10 -10"></path>
<path d="M254.5 51a10 10 0 0 1 10 10v30a10 10 0 0 0 10 10"></path>
<g class="non-terminal ">
<path d="M274.5 101h0"></path>
<path d="M337 101h0"></path>
<rect x="274.5" y="90" width="62.5" height="22"></rect>
<text x="305.75" y="105">slice</text>
</g>
<path d="M337 101a10 10 0 0 0 10 -10v-30a10 10 0 0 1 10 -10"></path>
</g>
<path d="M357 51h10"></path>
<g class="terminal ">
<path d="M367 51h0"></path>
<path d="M395.5 51h0"></path>
<rect x="367" y="40" width="28.5" height="22" rx="10" ry="10"></rect>
<text x="381.25" y="55">&#93;</text>
</g>
</g>
<path d="M395.5 51a10 10 0 0 0 10 -10v0a10 10 0 0 1 10 -10"></path>
</g>
<path d="M 415.5 31 h 20 m 0 -10 v 20"></path>
</g>
<style>
	svg {
		background-color: hsl(30,20%,95%);
	}
	path {
		stroke-width: 3;
		stroke: black;
		fill: rgba(0,0,0,0);
	}
	text {
		font: bold 14px monospace;
		text-anchor: middle;
		white-space: pre;
	}
	text.diagram-text {
		font-size: 12px;
	}
	text.diagram-arrow {
		font-size: 16px;
	}
	text.label {
		text-anchor: start;
	}
	text.comment {
		font: italic 12px monospace;
	}
	g.non-terminal text {
		/&#42;font-style: italic;&#42;/
	}
	rect {
		stroke-width: 3;
		stroke: black;
		fill: hsl(120,100%,90%);
	}
	rect.group-box {
		stroke: gray;
		stroke-dasharray: 10 5;
		fill: none;
	}
	path.diagram-text {
		stroke-width: 3;
		stroke: black;
		fill: white;
		cursor: help;
	}
	g.diagram-text:hover path.diagram-text {
		fill: #eee;
	}</style>
</svg>
