<svg class="railroad-diagram" width="616.5" height="122" viewBox="0 0 616.5 122" xmlns="http://www.w3.org/2000/svg" xmlns:xlink="http://www.w3.org/1999/xlink">
<g transform="translate(.5 .5)">
<g>
<path d="M20 21v20m0 -10h20"></path>
</g>
<path d="M40 31h10"></path>
<g class="comment ">
<path d="M50 31h0"></path>
<path d="M102 31h0"></path>
<text x="76" y="36" class="comment">filter</text>
</g>
<path d="M102 31h10"></path>
<path d="M112 31h10"></path>
<g class="non-terminal ">
<path d="M122 31h0"></path>
<path d="M184.5 31h0"></path>
<rect x="122" y="20" width="62.5" height="22"></rect>
<text x="153.25" y="35">field</text>
</g>
<path d="M184.5 31h10"></path>
<g>
<path d="M194.5 31h0"></path>
<path d="M385.5 31h0"></path>
<path d="M194.5 31h20"></path>
<g>
<path d="M214.5 31h151"></path>
</g>
<path d="M365.5 31h20"></path>
<path d="M194.5 31a10 10 0 0 1 10 10v23a10 10 0 0 0 10 10"></path>
<g>
<path d="M214.5 74h0"></path>
<path d="M365.5 74h0"></path>
<rect x="214.5" y="55" width="151" height="47" rx="10" ry="10" class="group-box"></rect>
<g>
<path d="M214.5 74h10"></path>
<path d="M355.5 74h10"></path>
<path d="M224.5 74h10"></path>
<g>
<path d="M234.5 74h0"></path>
<path d="M345.5 74h0"></path>
<g class="terminal ">
<path d="M234.5 74h0"></path>
<path d="M263 74h0"></path>
<rect x="234.5" y="63" width="28.5" height="22" rx="10" ry="10"></rect>
<text x="248.75" y="78">.</text>
</g>
<path d="M263 74h10"></path>
<path d="M273 74h10"></path>
<g class="non-terminal ">
<path d="M283 74h0"></path>
<path d="M345.5 74h0"></path>
<rect x="283" y="63" width="62.5" height="22"></rect>
<text x="314.25" y="78">field</text>
</g>
</g>
<path d="M345.5 74h10"></path>
<path d="M234.5 74a10 10 0 0 0 -10 10v0a10 10 0 0 0 10 10"></path>
<g>
<path d="M234.5 94h111"></path>
</g>
<path d="M345.5 94a10 10 0 0 0 10 -10v0a10 10 0 0 0 -10 -10"></path>
</g>
<g class="comment ">
<path d="M214.5 47h0"></path>
<path d="M259.5 47h0"></path>
<text x="237" y="52" class="comment">child</text>
</g>
</g>
<path d="M365.5 74a10 10 0 0 0 10 -10v-23a10 10 0 0 1 10 -10"></path>
</g>
<g>
<path d="M385.5 31h0"></path>
<path d="M576.5 31h0"></path>
<path d="M385.5 31h20"></path>
<g>
<path d="M405.5 31h151"></path>
</g>
<path d="M556.5 31h20"></path>
<path d="M385.5 31a10 10 0 0 1 10 10v23a10 10 0 0 0 10 10"></path>
<g>
<path d="M405.5 74h0"></path>
<path d="M556.5 74h0"></path>
<rect x="405.5" y="55" width="151" height="47" rx="10" ry="10" class="group-box"></rect>
<g>
<path d="M405.5 74h10"></path>
<path d="M546.5 74h10"></path>
<path d="M415.5 74h10"></path>
<g>
<path d="M425.5 74h0"></path>
<path d="M536.5 74h0"></path>
<g class="terminal ">
<path d="M425.5 74h0"></path>
<path d="M454 74h0"></path>
<rect x="425.5" y="63" width="28.5" height="22" rx="10" ry="10"></rect>
<text x="439.75" y="78">,</text>
</g>
<path d="M454 74h10"></path>
<path d="M464 74h10"></path>
<g class="non-terminal ">
<path d="M474 74h0"></path>
<path d="M536.5 74h0"></path>
<rect x="474" y="63" width="62.5" height="22"></rect>
<text x="505.25" y="78">field</text>
</g>
</g>
<path d="M536.5 74h10"></path>
<path d="M425.5 74a10 10 0 0 0 -10 10v0a10 10 0 0 0 10 10"></path>
<g>
<path d="M425.5 94h111"></path>
</g>
<path d="M536.5 94a10 10 0 0 0 10 -10v0a10 10 0 0 0 -10 -10"></path>
</g>
<g class="comment ">
<path d="M405.5 47h0"></path>
<path d="M464.5 47h0"></path>
<text x="435" y="52" class="comment">sibling</text>
</g>
</g>
<path d="M556.5 74a10 10 0 0 0 10 -10v-23a10 10 0 0 1 10 -10"></path>
</g>
<path d="M 576.5 31 h 20 m 0 -10 v 20"></path>
</g>
<style>
	svg {
		background-color: hsl(30,20%,95%);
	}
	path {
		stroke-width: 3;
		stroke: black;
		fill: rgba(0,0,0,0);
	}
	text {
		font: bold 14px monospace;
		text-anchor: middle;
		white-space: pre;
	}
	text.diagram-text {
		font-size: 12px;
	}
	text.diagram-arrow {
		font-size: 16px;
	}
	text.label {
		text-anchor: start;
	}
	text.comment {
		font: italic 12px monospace;
	}
	g.non-terminal text {
		/&#42;font-style: italic;&#42;/
	}
	rect {
		stroke-width: 3;
		stroke: black;
		fill: hsl(120,100%,90%);
	}
	rect.group-box {
		stroke: gray;
		stroke-dasharray: 10 5;
		fill: none;
	}
	path.diagram-text {
		stroke-width: 3;
		stroke: black;
		fill: white;
		cursor: help;
	}
	g.diagram-text:hover path.diagram-text {
		fill: #eee;
	}</style>
</svg>
